<svg xmlns="http://www.w3.org/2000/svg" width="16" height="16" viewBox="0 0 16 16">
    <g fill="none" fill-rule="evenodd">
        <path d="M0 0H24V24H0z" transform="translate(-4 -4)"/>
        <path fill="#E70" fill-rule="nonzero" d="M18.68 11.998c0-.875.545-1.62 1.32-1.92-.204-.854-.542-1.654-.988-2.379-.266.117-.55.18-.837.18-.525 0-1.05-.2-1.454-.6-.621-.621-.758-1.534-.425-2.292-.721-.445-1.525-.783-2.375-.987-.296.77-1.046 1.32-1.921 1.32S10.375 4.77 10.08 4c-.855.204-1.655.542-2.38.987.337.754.196 1.67-.425 2.291-.4.4-.93.6-1.454.6-.288 0-.571-.058-.838-.179-.441.729-.779 1.529-.983 2.383.77.296 1.32 1.041 1.32 1.92 0 .875-.545 1.62-1.316 1.92.204.854.542 1.654.988 2.379.266-.117.55-.175.833-.175.525 0 1.05.2 1.454.6.617.616.758 1.533.425 2.287.725.445 1.53.783 2.38.987.295-.77 1.041-1.316 1.916-1.316s1.62.545 1.917 1.316c.854-.204 1.654-.542 2.379-.987-.333-.754-.192-1.666.425-2.287.4-.4.925-.6 1.454-.6.283 0 .57.058.833.175.446-.725.784-1.529.988-2.379-.767-.3-1.317-1.045-1.317-1.924zm-6.643 3.328c-1.845 0-3.333-1.495-3.333-3.332 0-1.837 1.488-3.333 3.333-3.333 1.846 0 3.334 1.496 3.334 3.333 0 1.837-1.488 3.332-3.334 3.332z" transform="translate(-4 -4)"/>
    </g>
</svg>
