<svg xmlns="http://www.w3.org/2000/svg" width="16" height="16" viewBox="0 0 16 16">
    <g fill="none" fill-rule="evenodd">
        <path d="M0 0H24V24H0z" transform="translate(-4 -4)"/>
        <path fill="#E70" fill-rule="nonzero" d="M20 12c0 4.42-3.582 8-8 8s-8-3.58-8-8c0-4.417 3.582-8 8-8s8 3.583 8 8zm-7.785-5.355c-1.758 0-2.88.74-3.76 2.057-.114.17-.076.4.088.524l1.119.849c.168.127.407.097.538-.068.576-.731.97-1.155 1.848-1.155.659 0 1.474.424 1.474 1.063 0 .483-.399.731-1.05 1.096-.758.425-1.762.955-1.762 2.28v.128c0 .214.173.387.387.387h1.806c.214 0 .387-.173.387-.387v-.043c0-.918 2.684-.956 2.684-3.44 0-1.872-1.941-3.29-3.76-3.29zm-.215 8c-.818 0-1.484.666-1.484 1.484s.666 1.484 1.484 1.484 1.484-.666 1.484-1.484-.666-1.484-1.484-1.484z" transform="translate(-4 -4)"/>
    </g>
</svg>
