<svg xmlns="http://www.w3.org/2000/svg" width="15" height="18" viewBox="0 0 15 18">
    <g fill="none" fill-rule="evenodd">
        <path d="M0 0H24V24H0z" transform="translate(-5 -3)"/>
        <path fill="#E70" fill-rule="nonzero" d="M14.35 18.616c0 1.394-.764 2.384-2.163 2.384-1.404 0-2.169-.99-2.169-2.384zM12.197 3c.603-.004 1.097.504 1.097 1.107v.13c0 .171.117.225.28.266 1.727.405 3.58 2.092 3.58 6.29 0 4.089 1.364 4.624 2.056 5.537.446.585.023 1.43-.71 1.43H5.897c-.737 0-1.16-.84-.715-1.43.693-.918 2.056-1.448 2.056-5.538 0-4.197 1.849-5.88 3.581-6.29.162-.04.279-.098.279-.265v-.13c0-.603.495-1.116 1.098-1.107z" transform="translate(-5 -3)"/>
    </g>
</svg>
