<svg xmlns="http://www.w3.org/2000/svg" width="120" height="28" viewBox="0 0 120 28">
    <g fill="none" fill-rule="evenodd">
        <path fill="#BE5A09" d="M101 11.983h17.622c.277 0 .503.225.503.503 0 .149-.066.29-.18.385l-7.988 6.727c-.213.18-.24.497-.06.71.018.021.038.042.06.06l7.989 6.727c.212.18.24.497.06.71-.095.113-.236.178-.384.178h-17.119c-.278 0-.503-.225-.503-.503V11.983zM19 11.983H1.378c-.277 0-.503.225-.503.503 0 .149.066.29.18.385l7.988 6.727c.213.18.24.497.06.71-.018.021-.038.042-.06.06l-7.989 6.727c-.212.18-.24.497-.06.71.095.113.236.178.384.178h17.119c.278 0 .503-.225.503-.503V11.983z"/>
        <rect width="95" height="23" x=".383" y=".983" fill="#E70" rx="1.656" transform="translate(13.617)"/>
    </g>
</svg>
