<svg xmlns="http://www.w3.org/2000/svg" width="84" height="84" viewBox="0 0 84 84">
    <g fill="none" fill-rule="evenodd" transform="translate(1.584 1.694)">
        <circle cx="40.416" cy="40.306" r="40" fill="#E70" stroke="#FFF" stroke-width="3"/>
        <path fill="#FFF" fill-rule="nonzero" d="M25.416 41.302c0 .125.014.359.043.702.028.343.05.702.063 1.077l.027.55.037.526c.028.344.042.578.042.702 0 .094-.007.266-.02.515-.015.25-.03.507-.043.773-.014.265-.029.515-.043.749-.014.234-.02.398-.02.491 0 .718.034 1.506.105 2.364.07.858.269 1.74.594 2.645.326.905.828 1.81 1.507 2.715.679.905 1.64 1.763 2.885 2.574 1.443.874 2.97 1.53 4.583 1.966 1.131.312 2.107.5 2.928.562.82.062 1.457.093 1.91.093.423 0 .996-.015 1.718-.047.721-.03 1.499-.109 2.333-.234.835-.124 1.69-.288 2.568-.491.877-.203 1.697-.476 2.46-.82.793-.374 1.5-.81 2.122-1.31.623-.5 1.153-.998 1.592-1.498.438-.499.778-.944 1.018-1.334.24-.39.403-.647.488-.772.48-.874.785-1.81.912-2.809.128-.998.191-1.997.191-2.995 0-.156-.007-.437-.021-.843l-.042-1.287-.043-1.264c-.014-.39-.021-.663-.021-.82v-.701c0-.312.007-.648.021-1.007.014-.358.021-.702.021-1.03v-.678c0-.53-.085-.929-.254-1.194-.17-.265-.382-.468-.637-.608-.254-.14-.523-.219-.806-.234-.283-.016-.523-.024-.721-.024l-.125.002c-.143.003-.342.01-.597.022l-1.06.046-.542.024-.52.023c-.339.016-.565.024-.678.024-.17 0-.446-.008-.828-.024-.382-.015-.785-.023-1.209-.023l-.62-.006-.59-.018c-.381-.015-.643-.023-.784-.023l-.15.002c-.173.002-.413.01-.72.021-.41.016-.842.032-1.294.047l-1.273.047c-.396.016-.665.024-.807.024-.113 0-.31-.008-.594-.024-.283-.015-.587-.023-.912-.023-.325 0-.622-.008-.891-.024-.269-.015-.46-.023-.573-.023l-1.15.003c-.252.003-.519.01-.802.02l-1.252.047c-.41.016-.77.04-1.082.07-.396 0-.792.016-1.188.047l-.594.035-.594.012c-.085 0-.233-.008-.445-.023-.213-.016-.432-.032-.658-.047-.226-.016-.439-.031-.637-.047s-.34-.023-.424-.023c-.17-.032-.346-.04-.53-.024l-.27.006-.26-.03c-.142 0-.29-.007-.446-.023-.156-.015-.304-.023-.446-.023-.48 0-.856.086-1.124.257-.27.172-.467.398-.594.68-.128.28-.198.592-.213.935-.014.344-.02.687-.02 1.03zM28.287 31.945l-.227.003c-.48 0-.9-.114-1.259-.34-.36-.226-.54-.818-.54-1.774 0-.15.06-.452.18-.905s.24-.931.36-1.434c.12-.503.255-.956.405-1.359.15-.402.224-.654.224-.754.3-.453.615-.743.944-.868.33-.126.644-.24.944-.34.36-.1.614-.163.764-.189.15-.025.345-.037.584-.037.84 0 1.648.352 2.427 1.056.78.705 1.169 1.862 1.169 3.472v2.038c0 .453-.165.805-.495 1.056-.33.252-.734.378-1.213.378-.12 0-.36-.013-.72-.038-.359-.025-.598-.038-.718-.038l-.267.003c-.31.004-.745.016-1.306.035-.75.025-1.244.038-1.483.038l.227-.003zM47.287 31.945l-.227.003c-.48 0-.9-.114-1.259-.34-.36-.226-.54-.818-.54-1.774 0-.15.06-.452.18-.905s.24-.931.36-1.434c.12-.503.255-.956.405-1.359.15-.402.224-.654.224-.754.3-.453.615-.743.944-.868.33-.126.644-.24.944-.34.36-.1.614-.163.764-.189.15-.025.345-.037.584-.037.84 0 1.648.352 2.427 1.056.78.705 1.169 1.862 1.169 3.472v2.038c0 .453-.165.805-.495 1.056-.33.252-.734.378-1.213.378-.12 0-.36-.013-.72-.038-.359-.025-.598-.038-.718-.038l-.267.003c-.31.004-.745.016-1.306.035-.75.025-1.244.038-1.483.038l.227-.003z"/>
    </g>
</svg>
