<svg xmlns="http://www.w3.org/2000/svg" width="16" height="15" viewBox="0 0 16 15">
    <g fill="none" fill-rule="evenodd">
        <path d="M0 0H24V24H0z" transform="translate(-4 -5)"/>
        <path fill="#E70" fill-rule="nonzero" d="M11.2 19.222c0-.654-.537-1.185-1.2-1.185-.663 0-1.2.53-1.2 1.185h-4c-.442 0-.8-.354-.8-.79V5.79c0-.436.358-.79.8-.79h4c0 .655.537 1.185 1.2 1.185.663 0 1.2-.53 1.2-1.185h8c.442 0 .8.354.8.79v4.346c-1.105 0-2 .884-2 1.975 0 1.091.895 1.975 2 1.975v4.346c0 .436-.358.79-.8.79h-8zM10 10.926c.663 0 1.2-.53 1.2-1.185s-.537-1.185-1.2-1.185c-.663 0-1.2.53-1.2 1.185 0 .654.537 1.185 1.2 1.185zm0 4.74c.663 0 1.2-.53 1.2-1.185 0-.654-.537-1.185-1.2-1.185-.663 0-1.2.53-1.2 1.185s.537 1.186 1.2 1.186z" transform="translate(-4 -5)"/>
    </g>
</svg>
